<?xml version="1.0" standalone="no"?>
<!DOCTYPE svg PUBLIC "-//W3C//DTD SVG 20010904//EN"
 "http://www.w3.org/TR/2001/REC-SVG-20010904/DTD/svg10.dtd">
<svg version="1.0" xmlns="http://www.w3.org/2000/svg"
 width="700.000000pt" height="700.000000pt" viewBox="0 0 700.000000 700.000000"
 preserveAspectRatio="xMidYMid meet">
<metadata>
Created by potrace 1.11, written by Peter Selinger 2001-2013
</metadata>
<g transform="translate(0.000000,700.000000) scale(0.100000,-0.100000)"
fill="#000000" stroke="none">
<path d="M1927 6984 c-245 -37 -454 -146 -627 -328 -86 -91 -152 -186 -230
-331 -104 -195 -237 -330 -420 -425 -72 -37 -81 -43 -150 -89 -89 -61 -245
-220 -305 -311 -93 -142 -161 -319 -184 -477 -13 -90 -6 -310 13 -403 31 -151
103 -343 161 -432 14 -21 25 -40 25 -43 0 -3 17 -29 37 -57 138 -196 325 -369
560 -521 61 -40 112 -75 112 -78 1 -3 -51 -38 -115 -79 -373 -235 -613 -513
-732 -845 -86 -241 -90 -521 -12 -765 72 -225 242 -451 446 -593 180 -125 281
-256 349 -452 61 -174 141 -301 275 -435 52 -52 123 -114 157 -137 111 -75
268 -141 398 -168 17 -4 89 -8 160 -10 332 -7 642 127 915 397 47 46 98 99
115 118 16 19 56 66 89 103 32 38 62 65 66 60 8 -7 -9 -94 -55 -294 -9 -36
-18 -76 -20 -89 -3 -14 -16 -77 -31 -142 -14 -64 -24 -122 -22 -127 2 -9 269
104 331 139 10 6 57 28 105 49 87 39 181 82 322 149 97 45 144 82 169 135 19
41 23 66 36 229 4 43 10 80 15 83 4 3 26 -19 48 -48 61 -82 253 -305 318 -372
116 -119 238 -208 381 -279 175 -86 312 -116 508 -111 146 4 165 7 282 41 257
74 456 228 610 469 27 42 101 193 126 255 77 193 188 334 368 467 269 198 433
469 467 768 34 303 -39 603 -208 858 -122 183 -271 324 -563 532 l-138 99 23
18 c13 10 40 27 60 37 150 80 419 320 550 491 152 197 246 414 277 640 14 102
5 313 -17 415 -61 275 -210 513 -426 679 -92 71 -105 79 -201 131 -200 108
-321 231 -424 429 -139 267 -306 435 -547 552 -171 83 -309 113 -502 109 -192
-3 -350 -42 -549 -135 -263 -123 -471 -318 -657 -615 -38 -60 -84 -132 -101
-160 -18 -27 -40 -65 -50 -84 l-17 -33 -46 76 c-187 305 -262 408 -396 541
-61 61 -120 117 -131 125 -109 82 -103 78 -200 133 -112 65 -215 102 -396 143
-53 12 -318 11 -402 -2z"/>
</g>
</svg>
