<svg xmlns="http://www.w3.org/2000/svg" viewBox="0 0 305.48696 305.33643"><defs><style>.cls-1{fill:#39ff00;}</style></defs><g id="Layer_2" data-name="Layer 2"><g id="Layer_1-2" data-name="Layer 1"><g id="Layer_2-2" data-name="Layer 2"><g id="Layer_1-2-2" data-name="Layer 1-2"><path class="cls-1" d="M305.08956,212.458c1.8,15.2-4.6,28.1-17,36.7a57.80936,57.80936,0,0,0-22.3,29c-9.3,26-38.3,34.9-61,19.5-19.4-13.2-29.5-32-33.3-54.7-.7-3.9-1.6-7.8-2.4-11.7,0-.1-.2-.2-.6-.7a32.014,32.014,0,0,1-4.6.6c-3.5,0-4.3,1.8-4.4,5.1-.1,15-.5,30-.5,45,0,4.8-1.5,7.8-6.2,9.3-3.9,1.3-7.5,3.2-11.4,4.9,2.3-21.3,4.5-42.2,6.8-63.2-4.5-.7-7.6-1.1-11.4-1.7-1.2,5.3-2.6,10.6-3.6,15.9-3.1,17.1-10.6,31.8-23.2,43.8-11.5,11-25,17.7-41.2,14.1-16-3.6-25.7-14.7-30.7-29.9a41.67872,41.67872,0,0,0-17.1-22.6c-22.1-14.3-27.5-41.1-12.6-62.7,13.7-19.9,32-31.6,57-31,1.5,0,3-.1,4.5-.2,7.1-.3,7.2-.5,6.2-8-6.8-.8-13.7-1.8-20.6-2.4-26.6-2.5-52-27.1-55.1-53.4-2-16.9,6.8-34.8,22.1-42.7a61.38866,61.38866,0,0,0,28.1-28.4c11.9-23.6,41.5-29.9,63.5-15.1,13,8.8,23,19.9,27.9,34.8,2.7,8.3,3.2,17.3,4.6,26,.4,2.8.5,5.6.8,8.7h10.4c1.3-9.5,2.2-18.7,3.8-27.9,3.4-20.9,28.3-51.1,57.7-49.4,16.2.9,28.5,8.8,35.7,22.9a62.47712,62.47712,0,0,0,27.7,28.2c22.6,11.9,29.5,40.5,15.7,63.2-12.3,20.4-30,32.6-54.3,34.1-5.1.3-10.2.9-15.3,1.4-1.9,7-1.4,7.4,5.2,8,9.6.9,19.8.4,28.5,3.8C285.78951,170.558,302.08956,186.558,305.08956,212.458Z"/></g></g></g></g></svg>