<svg id="Layer_1" data-name="Layer 1" xmlns="http://www.w3.org/2000/svg" viewBox="0 0 326.81825 327.22207"><defs><style>.cls-1{fill:#39ff00;}</style></defs><path class="cls-1" d="M683.61283,486.339c6.18824,4.54685,12.30343,8.58669,17.90362,13.24658,12.73984,10.60079,21.85579,23.54881,24.30653,40.40238,2.97981,20.49209-3.29533,37.42035-19.591,50.42483-1.47464,1.17684-3.00237,2.2868-4.4939,3.44275a45.34951,45.34951,0,0,0-14.7514,20.11247c-6.88079,17.87557-18.8702,30.64819-38.15082,34.62443-18.16618,3.74642-34.05211-2.211-47.59977-14.183-5.68275-5.02181-10.26192-11.30334-15.27344-17.07255-1.57993-1.81876-2.93438-3.83384-4.392-5.75907l-.93462.17934c-.23141,2.76569-.673,5.5331-.65027,8.29669.04657,5.66315-2.49712,9.43329-7.59334,11.75474-11.793,5.37211-23.54444,10.83574-35.31724,16.2524-.495.22775-1.03542.35653-2.12592.72384,2.3144-10.508,4.54875-20.65247,6.78309-30.797l-.94175-.46565c-1.25469,1.45-2.54883,2.86779-3.75783,4.355-9.32932,11.47577-20.07257,20.99066-34.59221,25.40859-32.52924,9.89778-56.1602-12.83765-62.56582-32.57058a38.34471,38.34471,0,0,0-15.393-20.67375c-25.41419-16.92285-32.00535-49.69122-15.45851-76.42934,7.35408-11.88349,17.4444-20.88377,29.37851-27.94648,1.50492-.8906,2.96461-1.85774,4.71591-2.95975-3.26-2.15027-6.25786-4.03689-9.16207-6.05835-15.89045-11.06053-27.86515-25.07011-32.46924-44.35094-6.12532-25.65134,5.21967-50.39,28.9769-62.58855a43.00711,43.00711,0,0,0,19.37765-19.72933c10.87551-21.45148,28.55308-32.52771,52.68387-31.37694,17.50146.83462,31.73583,9.67955,43.23221,22.36766,5.7397,6.33469,9.91952,14.08964,14.75874,21.23352.857,1.26518,1.4866,2.6847,2.49055,4.52728,1.98787-3.28973,3.76528-6.19352,5.50638-9.119,7.90738-13.28637,17.55569-25.00176,31.67854-31.93624,20.7039-10.16584,41.03874-10.18675,60.19848,4.018,7.08531,5.25292,12.11275,12.28483,16.01788,20.14693A41.85372,41.85372,0,0,0,695.37705,373.272c32.07757,16.031,41.119,55.734,19.48984,85.47442a92.68018,92.68018,0,0,1-28.99125,26.06319C685.213,485.192,684.603,485.66588,683.61283,486.339ZM579.31258,564.30891c.86238,4.32617,1.78864,8.52923,2.52963,12.76475,3.74134,21.38558,13.035,39.46586,30.90841,52.52535,23.02446,16.82324,52.48139,9.53507,62.46508-16.02714,5.23834-13.41236,13.18178-24.05316,24.89951-32.409,11.29224-8.05247,16.42551-19.58248,15.44878-33.51471-1.99506-28.45848-26.8326-53.22378-55.329-55.33714-5.97124-.44285-11.94591-.84355-17.913-1.336-2.17223-.17926-4.2943-.51037-4.01195-3.61647.23306-2.56372.76056-4.41932,4.029-4.37944,3.31179.04041,6.62559-.58815,9.94684-.73562,25.42008-1.12866,44.12647-13.22833,56.82827-34.969,13.12378-22.463,6.55276-50.2346-15.01694-62.05279a69.70938,69.70938,0,0,1-29.3318-29.88219c-8.85-17.10164-25.72613-23.91269-43.5962-21.38671-23.02888,3.2552-45.92574,26.84767-49.36634,50.0327-1.18906,8.01249-2.13891,16.06068-3.34935,24.06966-.153,1.01235-1.14737,2.6081-1.8934,2.69336a73.24592,73.24592,0,0,1-8.37039.12873c-.80907-6.29835-1.78462-12.10855-2.26647-17.95948-1.85817-22.56281-12.87411-39.46423-31.498-51.77359-22.13526-14.63015-51.86965-8.21452-63.71089,15.97446-6.05412,12.36718-15.572,21.39381-27.75626,27.77374-15.19989,7.959-24.46847,26.23792-22.02843,42.95724,3.66292,25.09855,25.2881,47.8532,50.24153,52.473,7.28941,1.34955,14.73895,1.82027,22.09974,2.80831,1.17019.15706,2.86156.61857,3.28164,1.45668,1.85748,3.706.29618,6.20032-3.8632,6.51475-7.0681.53428-14.28252.269-21.1876,1.61424-22.27215,4.33915-37.13677,18.3748-47.09276,38.07762-3.685,7.29262-4.56529,15.28233-3.40051,23.39195,1.91962,13.36513,9.04509,23.45943,20.09939,30.80066a42.94162,42.94162,0,0,1,17.56894,23.10349c.51757,1.5789,1.11955,3.13481,1.76622,4.66592,10.92494,25.86661,39.12731,34.0354,61.97673,17.74819,16.44074-11.71908,26.45407-27.78947,30.77931-47.46164,1.37289-6.24424,2.68523-12.50181,4.08005-19.00881l11.27033,1.73979c-2.274,21.12256-4.51184,41.90829-6.79235,63.09082,3.93987-1.67525,7.35636-3.22666,10.84654-4.58892,5.26427-2.05473,6.81684-4.04605,6.89243-9.661q.27816-20.65557.444-41.31262C570.00388,564.85493,570.17722,564.623,579.31258,564.30891Z" transform="translate(-399.84732 -322.4833)"/><path d="M579.31258,564.30891c-9.13536.3141-9.3087.546-9.3726,8.99316q-.1563,20.65683-.444,41.31262c-.07559,5.615-1.62816,7.60629-6.89243,9.661-3.49018,1.36226-6.90667,2.91367-10.84654,4.58892,2.28051-21.18253,4.5183-41.96826,6.79235-63.09082L547.279,564.034c-1.39482,6.507-2.70716,12.76457-4.08005,19.00881-4.32524,19.67217-14.33857,35.74256-30.77931,47.46164-22.84942,16.28721-51.05179,8.11842-61.97673-17.74819-.64667-1.53111-1.24865-3.087-1.76622-4.66592a42.94162,42.94162,0,0,0-17.56894-23.10349c-11.0543-7.34123-18.17977-17.43553-20.09939-30.80066-1.16478-8.10962-.28451-16.09933,3.40051-23.39195,9.956-19.70282,24.82061-33.73847,47.09276-38.07762,6.90508-1.34526,14.1195-1.08,21.1876-1.61424,4.15938-.31443,5.72068-2.80873,3.8632-6.51475-.42008-.83811-2.11145-1.29962-3.28164-1.45668-7.36079-.988-14.81033-1.45876-22.09974-2.80831-24.95343-4.61983-46.57861-27.37448-50.24153-52.473-2.44-16.71932,6.82854-34.99825,22.02843-42.95724,12.18422-6.37993,21.70214-15.40656,27.75626-27.77374,11.84124-24.189,41.57563-30.60461,63.71089-15.97446,18.62394,12.30936,29.63988,29.21078,31.498,51.77359.48185,5.85093,1.4574,11.66113,2.26647,17.95948a73.24592,73.24592,0,0,0,8.37039-.12873c.746-.08526,1.7404-1.681,1.8934-2.69336,1.21044-8.009,2.16029-16.05717,3.34935-24.06966,3.4406-23.185,26.33746-46.7775,49.36634-50.0327,17.87007-2.526,34.74624,4.28507,43.5962,21.38671a69.70938,69.70938,0,0,0,29.3318,29.88219c21.5697,11.81819,28.14072,39.58981,15.01694,62.05279-12.7018,21.74062-31.40819,33.84029-56.82827,34.969-3.32125.14747-6.635.776-9.94684.73562-3.2684-.03988-3.7959,1.81572-4.029,4.37944-.28235,3.1061,1.83972,3.43721,4.01195,3.61647,5.96711.49245,11.94178.89315,17.913,1.336,28.49641,2.11336,53.334,26.87866,55.329,55.33714.97673,13.93223-4.15654,25.46224-15.44878,33.51471-11.71773,8.35588-19.66117,18.99668-24.89951,32.409-9.98369,25.56221-39.44062,32.85038-62.46508,16.02714-17.87341-13.05949-27.16707-31.13977-30.90841-52.52535C581.10122,572.83814,580.175,568.63508,579.31258,564.30891Z" transform="translate(-399.84732 -322.4833)"/></svg>