<svg id="Layer_1" data-name="Layer 1" xmlns="http://www.w3.org/2000/svg" viewBox="0 0 303.99279 303.82372"><path d="M949.21469,681.97592c2.24693-21.01721,4.44311-41.55945,6.6768-62.45279-4.07608-.61993-7.96656-1.21162-12.34837-1.87806-1.40221,6.37729-2.80786,12.59073-4.13107,18.82169-4.0742,19.18543-13.66831,34.95409-29.41307,46.71335-23.503,17.55362-52.68968,9.20426-62.78948-18.31735-4.25569-11.5966-10.78924-20.55233-20.93314-27.74428-19.70727-13.97225-23.96268-38.23717-10.83935-58.50236,10.25222-15.83157,23.83728-27.4354,42.953-30.88651,6.27511-1.1329,12.78236-.95324,19.17663-1.45985,7.18167-.569,7.54735-1.11,6.15727-8.92527-5.51651-.66763-11.172-1.681-16.86538-1.98614-30.17013-1.61664-52.50217-26.42976-57.50072-47.77071-4.45394-19.01585,3.87635-38.52367,21.07422-47.68516a65.39714,65.39714,0,0,0,27.84824-28.06054c12.07633-22.97162,39.3715-30.10612,61.39534-16.1631,19.16151,12.13092,30.47267,29.18587,32.376,52.11725.4937,5.9479,1.46376,11.85626,2.24526,18.02152h11.08894c.86633-6.668,1.8174-13.32945,2.58476-20.01194,2.87871-25.06882,16.2927-42.71225,38.72893-53.28649,17.90862-8.44037,43.69254-3.64685,54.95514,19.21422a59.92832,59.92832,0,0,0,26.93029,27.60568c21.55643,10.9907,29.70236,37.46468,17.85456,59.65411-12.24609,22.9354-31.19,36.0011-57.69792,37.06123-3.64521.14578-7.26691.87068-10.91227,1.02418-3.83665.16155-3.058,3.07432-3.38443,5.25636-.36692,2.45233,1.30275,3.40308,3.37986,3.58382,5.84543.50863,11.69628.97667,17.55273,1.33321,28.68085,1.74609,53.3606,25.27337,56.13659,53.8177,1.35042,13.88589-3.56,25.52772-14.8501,33.62009a71.40831,71.40831,0,0,0-25.50036,33.0956c-8.70556,22.16373-33.70265,31.00539-54.608,19.49928-18.57177-10.22172-29.76706-26.41363-35.18393-46.67675-1.712-6.40417-2.87885-12.96247-4.08938-19.4884-.51728-2.78878-1.61163-3.27852-4.47989-3.11047-6.07513.356-6.69777,2.1938-6.72929,8.16331-.07432,14.07178-.25407,28.14316-.42962,42.21422-.07209,5.77829-1.35477,7.43231-6.84934,9.55976C955.72862,679.13329,952.72894,680.49049,949.21469,681.97592Z" transform="translate(-807.89746 -388.55886)"/></svg>